<?xml version="1.0" standalone="no"?>
<!DOCTYPE svg PUBLIC "-//W3C//DTD SVG 1.1//EN" "http://www.w3.org/Graphics/SVG/1.1/DTD/svg11.dtd" >
<!--
2013-9-30: Created.
-->
<svg>
<metadata>
Created by iconfont
</metadata>
<defs>

<font id="iconfont" horiz-adv-x="1024" >
  <font-face
    font-family="iconfont"
    font-weight="500"
    font-stretch="normal"
    units-per-em="1024"
    ascent="896"
    descent="-128"
  />
    <missing-glyph />
    
    <glyph glyph-name="x" unicode="x" horiz-adv-x="1001"
d="M281 543q-27 -1 -53 -1h-83q-18 0 -36.5 -6t-32.5 -18.5t-23 -32t-9 -45.5v-76h912v41q0 16 -0.5 30t-0.5 18q0 13 -5 29t-17 29.5t-31.5 22.5t-49.5 9h-133v-97h-438v97zM955 310v-52q0 -23 0.5 -52t0.5 -58t-10.5 -47.5t-26 -30t-33 -16t-31.5 -4.5q-14 -1 -29.5 -0.5
t-29.5 0.5h-32l-45 128h-439l-44 -128h-29h-34q-20 0 -45 1q-25 0 -41 9.5t-25.5 23t-13.5 29.5t-4 30v167h911zM163 247q-12 0 -21 -8.5t-9 -21.5t9 -21.5t21 -8.5q13 0 22 8.5t9 21.5t-9 21.5t-22 8.5zM316 123q-8 -26 -14 -48q-5 -19 -10.5 -37t-7.5 -25t-3 -15t1 -14.5
t9.5 -10.5t21.5 -4h37h67h81h80h64h36q23 0 34 12t2 38q-5 13 -9.5 30.5t-9.5 34.5q-5 19 -11 39h-368zM336 498v228q0 11 2.5 23t10 21.5t20.5 15.5t34 6h188q31 0 51.5 -14.5t20.5 -52.5v-227h-327z" />
    

    
    <glyph glyph-name="search" unicode="&#58960;" d="M917.408-102.688l-244.064 244.064c59.968 63.136 96.96 148.224 96.96 242.112 0 194.4-157.6 352-352 352s-352-157.6-352-352c0-194.368 157.6-352 352-352 77.344 0 148.672 25.248 206.752 67.552l247.040-247.040c12.544-12.512 32.736-12.512 45.28 0 12.544 12.576 12.544 32.768 0.032 45.312zM418.304 88.8c-159.040 0-288 128.96-288 288 0 159.072 128.96 288 288 288 159.072 0 288-128.96 288-288 0-159.008-128.928-288-288-288z"  horiz-adv-x="1024" />

    
    <glyph glyph-name="shenghuofuwu" unicode="&#59084;" d="M271.65 148.71500000000003c0-31.865 23.725-57.749 52.885-57.749l376.141 0c28.996 0 52.599 25.884 52.6 57.749l0 7.671L271.65 156.38599999999997 271.65 148.71500000000003zM667.637 475.928c5.647-5.467 9.182-13.107 9.182-21.595 0-16.642-13.5-30.173-30.157-30.173-16.656 0-30.156 13.531-30.156 30.173 0 9.938 4.878 18.696 12.322 24.193l0 60.103L396.116 538.629l0-60.103c7.431-5.498 12.293-14.256 12.293-24.193 0-16.642-13.5-30.173-30.143-30.173-16.656 0-30.172 13.531-30.172 30.173 0 8.487 3.533 16.128 9.182 21.595l0 62.701L271.65 538.629l0-348.296 481.626 0L753.276 538.629l-85.64 0L667.636 475.928zM628.826 624.0419999999999c0 13.983-13.139 27.726-26.533 27.726L422.936 651.768c-13.29 0-26.82-13.983-26.82-27.726l0 0 0-46.572 232.711 0L628.827 624.0419999999999zM512 896C229.23 896 0 666.77 0 384s229.23-512 512-512 512 229.23 512 512S794.77 896 512 896zM792.102 148.71299999999997c0-53.247-41.015-96.588-91.423-96.588L324.537 52.125c-50.574 0-91.71 43.34-91.71 96.588L232.827 558.049c0 10.721 8.684 19.42 19.407 19.42l105.044 0 0 46.572c0 35.458 30.684 66.567 65.659 66.567l179.357 0c34.81 0 65.344-31.11 65.344-66.567l0-46.572 105.044 0 0.002 0c10.723 0 19.42-8.699 19.419-19.42L792.103 148.71299999999997z"  horiz-adv-x="1024" />

    
    <glyph glyph-name="jiudian" unicode="&#58936;" d="M670.811219 368.17668000000003c-11.560416 0-20.953255-9.284459-21.224202-20.772623l0-0.379326c0-0.036126 0-0.036126 0-0.036126 0-0.036126 0-0.036126 0-0.036126l0-148.352655 0-0.036126 0-0.036126 0-0.036126c0.072253-11.704922 9.555407-21.133886 21.224202-21.133886 11.722985 0 21.224202 9.483154 21.224202 21.206139 0 0.072253 0 0.144505 0 0.216758l0 147.955265c0 0.072253 0 0.144505 0 0.252884 0 0.072253 0 0.144505 0 0.252884l0 0.180632C691.764473 358.91028400000005 682.389698 368.17668000000003 670.811219 368.17668000000003zM580.892856 590.678568l-0.036126 0 0 0.018063L359.131558 590.696631c-0.415452 0.018063-0.830905 0.054189-1.264421 0.054189-8.688375 0-15.733004-7.044629-15.733004-15.751067 0-0.072253 0-0.162568 0-0.252884l0-397.533815 254.491727 0L596.62586 574.909437c0 0.018063 0 0.036126 0 0.036126C596.607797 583.633939 589.581231 590.678568 580.892856 590.678568zM448.200953 332.97159999999997c0-9.808291-8.038102-17.810266-17.846393-17.810266l-17.322561 0c-9.790228 0-17.810266 8.001976-17.810266 17.810266l0 49.095643c0 9.808291 8.020039 17.846393 17.810266 17.846393l17.322561 0c9.808291 0 17.846393-8.038102 17.846393-17.846393L448.200953 332.97159999999997zM448.200953 460.208432c0-9.826354-8.001976-17.846393-17.82833-17.846393l-17.286435 0c-9.826354 0-17.846393 8.020039-17.846393 17.846393L395.239795 509.267948c0 9.790228 8.020039 17.846393 17.846393 17.846393l17.286435 0c9.826354 0 17.82833-8.038102 17.82833-17.846393L448.200953 460.208432zM543.538261 332.97159999999997c0-9.808291-8.020039-17.810266-17.846393-17.810266l-17.286435 0c-9.826354 0-17.82833 8.001976-17.82833 17.810266l0 49.095643c0 9.808291 8.001976 17.846393 17.82833 17.846393l17.286435 0c9.826354 0 17.846393-8.038102 17.846393-17.846393L543.538261 332.97159999999997zM543.59245 460.118116c0-9.808291-8.038102-17.82833-17.846393-17.82833l-17.304498 0c-9.808291 0-17.846393 8.020039-17.846393 17.82833l0 49.059517c0 9.808291 8.038102 17.82833 17.846393 17.82833l17.304498 0c9.808291 0 17.846393-8.020039 17.846393-17.82833L543.59245 460.118116zM512.018063 889.027624c-278.93117 0-505.027624-226.114518-505.027624-505.045687 0-278.913106 226.096454-505.027624 505.027624-505.027624 278.913106 0 505.009561 226.114518 505.009561 505.027624C1017.027624 662.9311700000001 790.93117 889.027624 512.018063 889.027624zM761.723055 124.25189599999999L761.723055 124.25189599999999l-0.668337 0c0 0 0 0-0.018063 0 0 0 0 0-0.036126 0L263.035597 124.25189599999999c-0.018063 0-0.054189 0-0.054189 0-0.018063 0-0.018063 0-0.054189 0l-0.487705 0 0 0c-14.396331 0.325137-25.956747 12.066185-25.956747 26.498642 0 14.649215 11.849427 26.498642 26.498642 26.498642 0.3432 0 0.668337 0 1.011536-0.036126l25.234221 0L289.227165 611.956959c0 0.072253-0.018063 0.162568-0.018063 0.270947 0 17.358688 14.107321 31.466008 31.484071 31.466008L616.495325 643.693914c0.523831 0.018063 1.0296 0.036126 1.553431 0.036126 17.376751 0 31.466008-14.089257 31.466008-31.466008 0-0.28901 0-0.596084-0.036126-0.885094l0-190.29529 52.328947 0c0.3432 0 0.668337 0.018063 1.047663 0.018063 17.304498 0 31.357629-14.017005 31.447945-31.321503l0.018063 0 0-212.549092 25.703863 0c0.3432 0.036126 0.668337 0.036126 1.011536 0.036126 14.649215 0 26.498642-11.849427 26.498642-26.498642C787.535297 136.35420699999997 776.065197 124.64928599999996 761.723055 124.25189599999999z"  horiz-adv-x="1024" />

    
    <glyph glyph-name="jjshyinpintiandian" unicode="&#59030;" d="M512.176009 832.775027c-247.101841 0-447.418123-200.316282-447.418123-447.418123s200.316282-447.418123 447.418123-447.418123S959.595154 138.25404000000003 959.595154 385.356904 759.278873 832.775027 512.176009 832.775027zM514.610454 35.693175999999994c-0.26913 0.00614-0.538259 0.01228-0.807389 0.01842-44.174082 122.259508-88.348164 244.519016-132.63788 367.100866 87.793532 0 175.258583 0 263.23631 0C601.101317 280.33908199999996 557.856397 158.01612899999998 514.610454 35.693175999999994zM679.307494 444.790528c-4.983501-11.037381-13.402241-18.859533-24.292266-24.000624-1.479701-0.698918-3.295046-0.961908-4.955872-0.962931-93.931323-0.044002-187.862645-0.051165-281.793968 0.044002-1.886977 0.002047-4.180206 0.772596-5.596462 1.987261-12.487406 10.707876-20.028149 24.169469-21.958104 40.630373-0.125867 1.072425-0.49835 2.116197-0.7552 3.173273l0 5.14416c1.254573 7.208169 2.000564 14.553461 3.889587 21.591761 2.396583 8.930393 4.861728 18.021445 8.81476 26.319435 9.448186 19.832697 26.427906 28.048823 48.275493 25.198915 19.576871-2.554172 37.939077-9.30083 56.485479-15.452947 17.990746-5.967922 35.992749-11.862165 54.793954-14.800078 15.888875-2.482541 31.686676-2.467191 47.288003 1.992377 1.169639 0.334621 2.313695 0.768503 3.450589 1.206478 0.311085 0.119727 0.552585 0.421602 1.023306 0.796132-6.214539-0.36532-12.175297-0.883113-18.146289-1.038656-27.446096-0.718361-53.185316 6.207375-78.232782 16.935718-16.714683 7.15905-33.768081 13.558807-50.850132 19.807115-5.556553 2.033309-11.660574 2.628874-17.553795 3.653203-2.565429 0.446162-3.659343 1.251503-3.595898 4.16588 0.316202 14.392802 1.62194 28.611641 7.008624 42.116213 6.243191 15.650445 17.027815 25.89681 34.668591 25.806759 9.467629-0.048095 19.266809-0.741897 28.304649-3.304256 12.147668-3.443425 23.801079-8.745175 35.483142-13.68365 8.572236-3.623527 16.971533-7.584746 26.331715-8.762571 12.141528-1.526773 23.379477 1.438769 34.098609 7.011694-4.063549-0.681522-8.105608-1.559519-12.193717-2.007727-14.296611-1.567705-27.710109 1.830695-40.579207 7.743358-6.77531 3.112897-13.446243 6.460132-20.106943 9.816576-22.206768 11.1919-27.587312 12.69616-53.078893 14.392802 1.425466 2.484587 2.39249 4.774747 3.875261 6.655584 9.420557 11.946077 20.552082 21.945825 33.846876 29.481452 5.104251 2.892887 10.18906 5.862521 15.032368 9.162684 5.600555 3.815909 8.584516 9.17394 8.408507 16.187681-0.201591 8.05035-4.625344 13.489222-12.69923 14.482853-3.946892 0.48607-8.002254 0.083911-12.261255 0.083911 0.3776 5.473665 3.103688 9.172917 7.063883 12.078083 5.995551 4.39817 12.984732 6.154163 20.178575 7.212262 22.829961 3.360538 44.152593-0.51063 63.295582-13.823843 27.773554-19.314904 37.33635-51.176566 25.585725-84.515882-0.51677-1.466398-1.003863-2.944052-1.570775-4.609994 11.363815-2.38942 21.522176-6.755868 30.4188-13.748119 18.041912-14.179954 24.5133-33.241079 21.705348-55.348586-1.296529-10.204409-4.821819-20.125363-7.343245-30.173207-0.232291-0.925069-0.512676-1.838881-0.74292-2.657526 4.861728-0.591471 9.682523-0.645706 14.20963-1.825578 16.136515-4.202719 26.497491-15.305591 33.272801-29.858028C686.086897 481.328699 687.561481 463.07087 679.307494 444.790528z"  horiz-adv-x="1024" />

    
    <glyph glyph-name="waimai" unicode="&#58995;" d="M512 896C229.229513 896 0 666.770487 0 384c0-282.771913 229.229513-512 512-512 282.770487 0 512 229.228087 512 512C1024 666.770487 794.770487 896 512 896L512 896zM194.585437 634.4434309999999c0 8.127392 6.577484 14.704875 14.709153 14.704875l250.015673 0c8.125966 0 14.703449-6.577484 14.703449-14.704875l0-132.359561c0-8.131669-6.577484-14.709153-14.703449-14.709153L209.29459 487.374717c-8.131669 0-14.709153 6.577484-14.709153 14.709153L194.585437 634.4434309999999 194.585437 634.4434309999999zM731.381111 119.70863499999996c-61.495837 0-112.508764 44.435444-122.936065 102.946959L413.119588 222.65559399999995c-10.425875-58.511515-61.438802-102.946959-122.940342-102.946959-66.547652 0-120.808684 52.050952-124.634262 117.657538l-0.373575 0 0 44.116051 0 29.414028 73.537209 102.946959-44.123181 0 0 44.118903 279.428275 0 0-44.118903-11.027587-18.379312-8.572259-14.308487L429.896235 340.31028000000003l111.117126 0 65.361338 117.650409 0 88.242084-44.117477 0 0 44.117477 117.650409 0 0-0.745724c2.428236 0.345058 4.840788 0.745724 7.351725 0.745724 28.423057 0 51.476331-23.047571 51.476331-51.470628 0-2.355518-0.384982-4.628336-0.690115-6.89545l0.690115-0.456275-0.990971-2.472438c-1.219109-6.322255-3.658752-12.154015-6.962465-17.405451l-21.460591-53.65932 0-73.527228 29.414028-14.71343-0.517587-0.345058c65.840426-3.553239 118.173698-57.931191 118.173698-124.664205C856.388947 175.67356800000005 800.418311 119.70863499999996 731.381111 119.70863499999996L731.381111 119.70863499999996zM731.381111 310.89482599999997c-36.549022 0-66.179781-29.629333-66.179781-66.178355 0-36.550448 29.630758-66.179781 66.179781-66.179781 36.554726 0 66.179781 29.629333 66.179781 66.179781C797.560891 281.265494 767.935836 310.89482599999997 731.381111 310.89482599999997L731.381111 310.89482599999997zM731.381111 222.65559399999995c-12.181106 0-22.062303 9.8869-22.062303 22.062303 0 12.181106 9.881197 22.062303 22.062303 22.062303 12.175403 0 22.062303-9.881197 22.062303-22.062303C753.443414 232.541069 743.562217 222.65559399999995 731.381111 222.65559399999995L731.381111 222.65559399999995zM253.413493 605.029403l161.779293 0 0-29.414028L253.413493 575.615375 253.413493 605.029403 253.413493 605.029403zM290.179246 310.89482599999997c-36.549022 0-66.179781-29.629333-66.179781-66.178355 0-36.550448 29.630758-66.179781 66.179781-66.179781 36.5533 0 66.185484 29.629333 66.185484 66.179781C356.36473 281.265494 326.732546 310.89482599999997 290.179246 310.89482599999997L290.179246 310.89482599999997zM290.179246 222.65559399999995c-12.175403 0-22.0566 9.8869-22.0566 22.062303 0 12.181106 9.881197 22.062303 22.0566 22.062303 12.181106 0 22.060877-9.881197 22.060877-22.062303C312.240123 232.541069 302.360352 222.65559399999995 290.179246 222.65559399999995L290.179246 222.65559399999995zM290.179246 222.65559399999995"  horiz-adv-x="1024" />

    
    <glyph glyph-name="wode" unicode="&#58912;" d="M511.05442 262.19616c195.295076 0 357.702583-140.377738 392.154862-325.714544l54.799652 0C926.958288 126.755088 777.266994 276.901776 587.35272 309.201939c106.116826 36.237011 182.538952 136.592347 182.538952 255.012974 0 148.919685-120.709873 269.657188-269.632627 269.657188-148.895124 0-269.607044-120.734433-269.607044-269.657188 0-120.813232 79.442048-223.054612 188.906269-257.352364C236.822834 269.377044 94.321633 121.784652 64.127536-63.51736l54.752578 0C153.350813 121.819446 315.76139 262.19616 511.05442 262.19616zM284.578731 564.214913c0 119.125719 96.557665 215.732505 215.68236 215.732505 119.122649 0 215.703851-96.603716 215.703851-215.732505 0-119.152326-96.581202-215.758088-215.703851-215.758088C381.135373 348.456824 284.578731 445.06361 284.578731 564.214913z"  horiz-adv-x="1025" />

    
    <glyph glyph-name="xiuxianyule" unicode="&#59011;" d="M405.167091 486.324451c0 0 25.045631 24.672989 50.466967 22.431011 28.129882-2.481898 48.972315-30.094166 48.972315-30.094166 32.242217 22.990485 61.681962-8.410481 61.681962-8.410481l68.410959 87.47594L321.802465 557.726756 405.167091 486.324451zM512 896C229.230006 896 0 666.769994 0 384S229.230006-128 512-128 1024 101.230006 1024 384 794.769994 896 512 896zM751.335242 529.688758c-5.514082 0-10.899525 0.538034-16.126724 1.526301-75.045009-78.930696-211.392191-216.97876-219.387151-225.071729l0-174.584343 95.326947 0c18.581057 0 33.644985-15.062907 33.644985-33.644985 0-18.581057-15.062907-33.644985-33.644985-33.644985L355.44745 64.26901699999996c-18.581057 0-33.644985 15.062907-33.644985 33.644985 0 18.581057 15.062907 33.644985 33.644985 33.644985L458.625404 131.558987 458.625404 305.765583 202.924538 576.4180739999999c0 0-37.382636 44.85998 0 46.354632l462.341615 0c3.436475 44.54349 40.64453 79.625954 86.069089 79.625954 47.693081 0 86.354951-38.662891 86.354951-86.354951C837.690193 568.3506279999999 799.028323 529.688758 751.335242 529.688758z"  horiz-adv-x="1024" />

    
    <glyph glyph-name="wodemeishi0101" unicode="&#58910;" d="M511.6900064 852.81395413c-258.24100693 0-468.4952288-210.12542187-468.4952288-468.49632 0-258.36544 210.2192928-468.45920853 468.4952288-468.45920853 258.33378667 0 468.49086187 210.09376747 468.49086187 468.45920853C980.17977707 642.68744107 770.0543552 852.81395413 511.6900064 852.81395413zM518.9945024 535.35217173c0-52.26884373-40.09832213-95.8513184-93.3822848-105.8617088l-0.00327467 0 0-391.07215466c0-11.9358432-10.45354987-21.601312-23.35212053-21.601312-12.89529493 0-23.35212053 9.66546773-23.35212053 21.601312L378.90470293 429.49046293c-53.29487787 10.00711573-93.3811936 53.59723093-93.3811936 105.8617088l0 151.24192747c0 11.9358432 10.45245867 21.591488 23.33683947 21.591488 12.89420373 0 23.35430293-9.66546773 23.35430293-21.591488L332.21465173 540.45505813c0-30.3924672 19.5503328-55.99313173 46.68895894-65.62803733L378.90361067 686.60173973c0 11.9358432 10.45354987 21.591488 23.35212053 21.591488 12.90621013 0 23.3553952-9.66328533 23.3553952-21.591488l0-211.77471893c27.12552747 9.63818027 46.68895893 35.23557013 46.68895893 65.62803733L472.30008533 686.5940992c0 11.9358432 10.45354987 21.591488 23.33793067 21.591488 12.90511893 0 23.3553952-9.66546773 23.3553952-21.591488L518.9934112 535.35217173zM638.97619947 319.2888448l0-280.862896c0-11.9358432-9.33910187-21.6024032-20.8427008-21.6024032-11.5177888 0-20.83942613 9.66656-20.83942614 21.6024032L597.29407253 686.5940992c0 11.9358432 9.31727147 21.591488 20.83942614 21.591488l20.8427008 0c0 0 125.0714848-134.3832992 125.0714848-388.8967424L638.97619947 319.2888448z"  horiz-adv-x="1024" />

    
    <glyph glyph-name="jiajujiazhuang" unicode="&#59031;" d="M632.531975 587.0741009999999L428.484547 587.0741009999999c-3.291249 0-9.873748-3.281215-9.873748-6.592533l-46.077491-207.318609c-3.291249-3.291249 0-6.592533 0-6.592533 3.301284-3.271181 6.582499-3.271181 9.873748-3.271181l296.202411 0c3.291249 0 6.56243 0 9.85368 3.271181 3.311318 3.301284 3.311318 3.301284 0 6.592533l-46.077491 207.318609C642.385654 583.772817 639.094405 587.0741009999999 632.531975 587.0741009999999zM512 891.163469c-280.097364 0-507.163469-227.066105-507.163469-507.163469 0-280.107398 227.066105-507.173503 507.163469-507.173503s507.163469 227.066105 507.163469 507.173503C1019.163469 664.097364 792.097364 891.163469 512 891.163469zM513.153944 641.399784l3.481901 31.156492c0 3.471867 3.461832 3.471867 3.461832 3.471867l27.694659 0c3.491935 0 3.491935-3.471867 3.491935-3.471867l6.913631-31.156492c0 0 0-3.471867-3.471867-3.471867L513.153944 637.927918C513.153944 637.937952 509.692112 637.937952 513.153944 641.399784zM533.924939 121.944302c-58.861186 0-107.336874 6.913631-107.336874 17.329231 0 10.385497 41.562058 17.319196 93.489544 17.319196L520.077609 308.98359600000003l27.704694 0 0-152.400902c51.957589 0 93.499579-10.395532 93.499579-17.319196C641.291916 128.857932 592.806193 121.944302 533.924939 121.944302zM720.93413 343.59188600000004c-6.913631-6.933699-17.329231-13.857364-31.156492-13.857364L378.102342 329.73452199999997c-10.395532 0-24.242861 3.471867-31.166526 13.857364s-6.923665 20.770995-6.923665 31.156492l48.485723 218.165683c3.471867 17.309162 17.329231 31.156492 38.100225 31.156492L641.291916 624.070554c17.329231 0 34.628359-13.857364 38.100225-31.156492l48.465654-218.165683C727.857795 364.362881 727.857795 353.97738400000003 720.93413 343.59188600000004z"  horiz-adv-x="1024" />

    
    <glyph glyph-name="jiehun" unicode="&#59020;" d="M503.00909547 188.89944213c-2.59674133-2.54762347-6.715072-2.54762347-9.399136-0.09277973l-110.82051414 104.53441173c-16.6501472-23.54204587-26.5863136-52.44785387-26.5863136-83.7157248 0-79.4489472 63.46681493-143.80426453 141.70307627-143.80426453 78.23298667 0 141.61138773 64.35531733 141.61138773 143.80426453 0 31.1750912-9.84666133 59.99248533-26.40839466 83.5345312L503.00909547 188.89944213zM415.90854613 414.05518507L326.39463147 414.05518507 490.47837013 217.25839467000003ZM511.9989088 860.49066133c-262.960768 0-476.13264-213.33232747-476.13264-476.48956906 0-263.15833387 213.17187307-476.48956907 476.13264-476.48956907 262.9618592 0 476.1337312 213.3312352 476.1337312 476.48956907C988.1337312 647.15724267 774.960768 860.49066133 511.9989088 860.49066133zM756.51724267 429.05276053l-99.5428608-94.35374293c26.40839467-34.63195627 42.2540864-77.8967968 42.2540864-125.07366827 0-112.89768853-90.1437248-204.4331104-201.3200768-204.4331104-111.18071787 0-201.3200768 91.53542187-201.3200768 204.4331104 0 47.26637653 15.84350827 90.53340053 42.3392256 125.1675392l-99.72077974 94.08086187c-3.1326816 2.90455253-2.95367147 7.90592747 0.35692907 10.543056L411.8797216 578.2186048c2.05861867 1.72570347 4.65426987 2.63712853 7.34051627 2.63712853l158.17530453 0c2.6851552 0 5.2818976-0.91251627 7.34051627-2.54871466l171.3325664-137.0706368C759.82784213 438.1440864 760.09526613 432.4146624 756.51724267 429.05276053zM809.95838507 574.2192511999999l-28.7344384-54.17355733-28.64602454 54.17355733-53.34945493 29.0880928 53.34945493 29.17759787 28.64602454 54.08296106 28.7344384-54.08296106 53.25994986-29.17759787L809.95838507 574.2192511999999z"  horiz-adv-x="1024" />

    
    <glyph glyph-name="zhoubianyou" unicode="&#58887;" d="M512.23983219 864C247.36924156 864 32.57559687 649.2063553099999 32.57559687 384.23983219s214.79364469-479.76016781 479.76016782-479.76016781 479.76016781 214.79364469 479.76016781 479.76016781S777.20635531 864 512.23983219 864zM377.93384656 613.0396725c39.04466906 0 70.70250844-31.65783938 70.70250844-70.79844094 0-39.04466906-31.65783938-70.79844094-70.70250844-70.79844094-39.14060156 0-70.79844094 31.75377281-70.79844094 70.79844094C307.13540563 581.38183313 338.793245 613.0396725 377.93384656 613.0396725zM773.36904125 223.07264906c-8.15429156-14.5817925-22.16048813-23.02388344-38.56500469-23.02388344L283.24812594 200.04876562000004c-17.07604687 0-23.79134625 6.3315675-30.79444407 20.52962907-7.38682969 15.06145687-4.1251125 36.93414656 5.66003813 51.22814062L357.30828406 389.03647406c27.24492844 33.2886975 57.55970813 30.79444406 80.19985969 5.37223969 14.77365844-16.5963825 39.3324675-45.5681025 39.3324675-45.5681025 10.3607475-9.30548625 22.64015156-18.41910656 36.45448219-18.41910656 13.52653125 0 24.27101063 17.55571125 31.178175 29.64324937l60.0539625 90.94433907c8.15429156 14.29399406 20.33776312 22.54421906 36.64634718 22.54421906 16.21265156 0.0959325 31.84970531-8.05835906 40.09993032-22.25642063l91.80773437-183.61546875C781.33146781 253.09963030999995 781.52333375 237.55850906 773.36904125 223.07264906z"  horiz-adv-x="1025" />

    
    <glyph glyph-name="liren1" unicode="&#58880;" d="M513.164 894.228c-279.22 0-505.571-226.352-505.571-505.571s226.352-505.571 505.571-505.571c279.218 0 505.57 226.352 505.57 505.571s-226.352 505.571-505.57 505.571zM628.766 284.16999999999996c10.759 55.009 119.826 207.475 70.879 249.221-24.775 21.132-58.229-1.757-72.143-11.659 9.606-13.125 18.678-30.229 23.075-46.706 5.079-19.052 6.51-39.794 4.242-61.644-4.203-40.5-21.145-82.469-46.475-115.148-36.595-43.954 24.223-119.187 36.281-148.733h-140.906l-0.669 4.801c-0.044 0.273-4.141 28.401-21.098 75.707-4.431 12.368-8.989 29.594-86.919 29.594-3.565 0-7.135-0.02-10.687-0.036-3.536-0.017-7.059-0.034-10.542-0.034-8.205 0-17.822 0.084-26.941 0.706-11.292 0.775-21.643 7.172-28.519 15.974-22.345 39.619-13.447 80.149-7.794 105.042l-40.933 18.911c0 0 76.226 45.045 74.817 84.331-3.114 28.598-28.043 42.883-28.295 43.022l-6.487 3.638 5.296 5.215c0.43 0.417 10.711 10.427 30.018 22.738 101.081 61.543 184.484 57.172 262.759-15.085 33.989 30.992 84.997 43.289 121.436 9.041 23.222-21.831 29.54-53.9 10.567-118.06-9.343-31.603-31.407-75.275-47.731-120.969-31.908-89.309 84.397-85.108 97.285-66.681-33.884-75.06-188.764-91.641-160.513 36.811z"  horiz-adv-x="1024" />

    
    <glyph glyph-name="muying" unicode="&#58931;" d="M602.375 293.625c-18.5625-5.8125-37.875-11.25-57.9375-15.9375-16.6875-3.9375-33-7.3125-49.125-10.125-5.8125-10.3125-9.375-22.125-9.375-34.875 0-40.5 33.5625-73.3125 75-73.3125s75 32.8125 75 73.3125c0 25.3125-13.3125 47.8125-33.5625 60.9375z m48.9375 154.3125c-7.875-12.9375-55.3125-41.25-117.9375-59.0625-33-9.375-115.5-21.1875-138.5625-9.9375 0-0.9375 0.1875-1.875 0.375-2.8125 5.625-19.5 67.6875-19.6875 138.5625-0.375 70.875 19.5 123.9375 50.8125 118.3125 70.5-0.1875 0.5625-0.375 1.125-0.75 1.6875zM512 864C246.875 864 32 649.125 32 384s214.875-480 480-480 480 214.875 480 480S777.125 864 512 864z m175.6875-537.1875c20.4375-26.25 32.625-58.6875 32.625-94.125 0-85.875-71.4375-155.8125-159.375-155.8125S401.375 146.8125 401.375 232.6875c0 8.4375 0.9375 16.5 2.25 24.5625-82.875-3.375-142.875 12.1875-150.9375 44.4375-9.5625 38.25 56.4375 88.3125 157.125 125.25 8.8125 10.5 17.625 20.4375 20.8125 30.75 6.9375 22.875 4.3125 61.6875 0.75 90.375-25.3125 12.75-42.5625 38.0625-42.5625 67.125 0 42 35.625 75.9375 79.5 75.9375s79.5-33.9375 79.5-75.9375c0-14.4375-4.125-27.75-11.4375-39.1875 8.625-30 23.625-74.25 39-85.3125 11.25-8.0625 22.875-14.0625 33.5625-18.5625 99.375 9.375 174.5625-5.8125 183.5625-42.1875 7.5-30.9375-34.6875-69.9375-104.8125-103.125z"  horiz-adv-x="1024" />

    
    <glyph glyph-name="jiantou" unicode="&#58898;" d="M511.31 226.6a61.19 61.19 0 0 0-43.25 17.79l-237.12 237.2a35 35 0 0 0 49.55 49.55l230.89-230.9 230.9 230.89a35 35 0 1 0 49.55-49.55L554.7 244.46a61.41 61.41 0 0 0-43.39-17.86z"  horiz-adv-x="1024" />

    
    <glyph glyph-name="shu" unicode="&#58881;" d="M512.5240625 864c-265.09781250000003 0-480-214.903125-480-480s214.903125-480 480-480 480 214.903125 480 480-214.9040625 480-480 480z m9.4171875-285.4996875s50.611875 37.042500000000004 122.4159375 37.042500000000004c71.81156250000001 0 122.4375-41.6821875 122.4375-41.6821875v-363.515625s-50.6259375 35.9053125-122.4375 35.9053125c-71.8040625 0-122.4159375-35.9053125-122.4159375-35.9053125V578.5003125z m-263.7103125 0s50.6315625 37.042500000000004 122.45625000000001 37.042500000000004c71.8078125 0 122.41875000000002-41.6821875 122.41875000000002-41.6821875v-363.515625s-50.6109375 35.9053125-122.41875000000002 35.9053125c-71.8246875 0-122.45625000000001-35.9053125-122.45625000000001-35.9053125V578.5003125z m546.23625-407.521875H578.45375l1.1803124999999999-18.521250000000002H446.59625v18.521250000000002H220.57906250000002V541.4559375h18.83625v-351.950625h226.0171875v-18.526875H559.6156249999999v18.526875h226.0153125V541.4559375h18.8353125v-370.47749999999996z"  horiz-adv-x="1024" />

    
    <glyph glyph-name="shenglvehao" unicode="&#58882;" d="M510.5697576277334 886.442047634647c-277.40996943265185 0-502.3005237753679-224.890554342716-502.3005237753679-502.3508618960593 0-277.4073195128098 224.890554342716-502.30184808801965 502.3005237753679-502.30184808801965 277.46163316053327 0 502.3495375834074 224.8945285752099 502.3495375834074 502.30184808801965C1012.9192952111408 661.5514932919308 788.0313907882667 886.442047634647 510.5697576277334 886.442047634647zM219.6676274656396 296.71470304015804c-48.284320188997526 0-87.4281464263111 39.15575022933333-87.4281464263111 87.4281464263111 0 48.21940945098271 39.143827531851855 87.37648399296789 87.4281464263111 87.37648399296789 48.24722778390124 0 87.40297801323459-39.15707454198518 87.40297801323459-87.37648399296789C307.0706041843358 335.86912766230125 267.91485524954084 296.71470304015804 219.6676274656396 296.71470304015804zM510.5962516480001 296.71470304015804c-48.27239749151605 0-87.40297801323459 39.15575022933333-87.40297801323459 87.4281464263111 0 48.21940945098271 39.130580521718514 87.37648399296789 87.40297801323459 87.37648399296789 48.24722778390124 0 87.40297801323459-39.15707454198518 87.40297801323459-87.37648399296789C597.9979040540445 335.86912766230125 558.8434794319012 296.71470304015804 510.5962516480001 296.71470304015804zM801.497057497442 296.71470304015804c-48.21940945098271 0-87.37648399296789 39.15575022933333-87.37648399296789 87.4281464263111 0 48.21940945098271 39.15707454198518 87.37648399296789 87.37648399296789 87.37648399296789 48.27107317886419 0 87.45464174111605-39.15707454198518 87.45464174111605-87.37648399296789C888.951699238558 335.86912766230125 849.769454988958 296.71470304015804 801.497057497442 296.71470304015804z"  horiz-adv-x="1024" />

    
    <glyph glyph-name="dian" unicode="&#58883;" d="M512 426.66666633333335c47.125333 0 85.333333-38.208 85.333333-85.333333s-38.208-85.333333-85.333333-85.333333c-47.125333 0-85.333333 38.208-85.333333 85.333333S464.874667 426.66666633333335 512 426.66666633333335z"  horiz-adv-x="1024" />

    
    <glyph glyph-name="daijinquan" unicode="&#59194;" d="M511.46666667-92.26666666999995c-263.33013333 0-476.8 213.47093333-476.8 476.79893334 0 263.33013333 213.46986667 476.8 476.8 476.8 263.32906667 0 476.8-213.46986667 476.8-476.8 0-263.328-213.47093333-476.79893333-476.8-476.79893334z m261.10506666 431.98826667c-26.70506667 0-48.35306667 20.06293333-48.35306666 44.8128s21.648 44.8128 48.35306666 44.8128v89.62346667c0 19.79946667-17.31946667 35.8496-38.6816 35.8496H289.04426667c-21.36426667 0-38.6816-16.05013333-38.6816-35.8496v-89.62346667c26.704 0 48.352-20.06293333 48.352-44.8128s-21.648-44.8128-48.352-44.8128v-89.62346667c0-19.7984 17.3184-35.8496 38.6816-35.8496h444.8448c21.3632 0 38.6816 16.0512 38.6816 35.8496v89.62346667z m-178.9056 8.9632c8.01173333 0 14.5056-6.0192 14.5056-13.4432 0-7.42506667-6.49493333-13.4432-14.5056-13.4432h-62.85866666v-31.36853333c0-7.424-6.49493333-13.4432-14.5056-13.4432-8.01173333 0-14.5056 6.0192-14.5056 13.4432v31.36853333h-62.8576c-8.01173333 0-14.5056 6.01813333-14.5056 13.4432 0 7.424 6.49493333 13.4432 14.5056 13.4432h62.8576v53.77493333h-62.8576c-8.01173333 0-14.5056 6.0192-14.5056 13.4432s6.49493333 13.4432 14.5056 13.4432h21.83146666l-24.3488 41.47413334c-4.17173333 7.10613333-2.36266667 15.81546667 4.04266667 19.45066666 6.40533333 3.63733333 14.97813333 0.82346667 19.14986667-6.28373333l30.21653333-51.47093333c0.5984-1.0208 0.80853333-2.1056 1.1648-3.1712h50.59093333c0.3584 1.0912 0.57706667 2.2016 1.1872 3.24373333l30.21653334 51.65013333c4.17173333 7.13173333 12.74666667 9.9552 19.14986666 6.30613334 6.40426667-3.65013333 8.21333333-12.3872 4.0416-19.52l-24.384-41.67893334h21.86773334c8.01173333 0 14.5056-6.0192 14.5056-13.4432s-6.49493333-13.4432-14.5056-13.4432h-62.85866667v-53.77493333h62.85973333z"  horiz-adv-x="1024" />

    
    <glyph glyph-name="xiaochikuaican" unicode="&#58947;" d="M512-96C246.90285687-96 32 118.90285687000005 32 384S246.90285687 864 512 864s480-214.90285687 480-480-214.90285687-480-480-480z m-0.06857156 731.42857125C373.32571437 635.42857125 260.57142875 533.9428575 260.57142875 409.1428575v-25.07428594h502.71999937v25.18857094c0 124.68571406-112.73142844 226.17142875-251.35999968 226.17142875zM260.57142875 208.04571468999995A75.52000031 75.52000031 0 0 1 335.90857156 132.57142875h351.90857156a75.5428575 75.5428575 0 0 1 75.474285 75.47428594v75.474285H260.57142875v-75.474285zM738.21714312 358.8571425H285.78285688a25.16571469 25.16571469 0 1 1 0-50.4h452.43428624c13.94285719 0 25.21142812 11.26857187 25.21142813 25.21142906a25.2571425 25.2571425 0 0 1-25.21142813 25.18857094z m-352.0228575 100.57142906a25.16571469 25.16571469 0 1 0 0 50.4c13.94285719 0 25.18857187-11.26857187 25.18857188-25.21142906s-11.24571469-25.21142812-25.18857188-25.21142812z m125.73714282 75.45142875c-13.94285719 0-25.18857187 11.26857187-25.18857094 25.21142813s11.24571469 25.18857187 25.18857094 25.18857187c13.94285719 0 25.21142812-11.24571469 25.21142906-25.18857187a25.2571425 25.2571425 0 0 0-25.21142906-25.21142813z m125.62285687-75.47428594c-13.94285719 0-25.21142812 11.26857187-25.21142812 25.21142813s11.26857187 25.18857187 25.21142812 25.18857187 25.18857187-11.24571469 25.18857188-25.18857187c0-13.94285719-11.24571469-25.21142812-25.18857188-25.21142813z"  horiz-adv-x="1024" />

    
    <glyph glyph-name="biaoqian" unicode="&#59184;" d="M538.112 462.848h144.384l-144.384 143.872zM512 857.6C250.368 857.6 38.4 645.6320000000001 38.4 384s211.968-473.6 473.6-473.6 473.6 211.968 473.6 473.6S773.632 857.6 512 857.6zM721.92 174.08000000000004c0-28.672-23.552-52.224-52.224-52.224H354.304c-28.672 0-52.224 23.552-52.224 52.224l0.512 419.84c0 28.672 23.552 52.224 52.224 52.224h209.92L721.92 488.96V174.08000000000004z"  horiz-adv-x="1024" />

    
    <glyph glyph-name="shipin" unicode="&#58944;" d="M511.455062 895.999659c282.487373 0 511.453696-228.966324 511.453696-511.556096a513.945429 513.945429 0 0 0-22.971726-152.132216 511.760896 511.760896 0 0 0-182.510872-257.706581 507.972097 507.972097 0 0 0-305.868699-101.580766 523.946492 523.946492 0 0 0-77.926374 5.870931 507.357698 507.357698 0 0 0-187.289537 68.130111c-11.09333 6.792531-21.879459 14.062929-32.460789 21.674659a508.688897 508.688897 0 0 0-43.758919 35.054922c-6.894931 6.212265-13.687462 12.492796-20.275193 19.11466a515.071828 515.071828 0 0 0-19.114661 20.24106 509.166764 509.166764 0 0 0-35.020788 43.758919c-7.611731 10.58133-14.882128 21.26506-21.674659 32.460789A512.580096 512.580096 0 0 0 23.007224 232.44788000000005 510.122497 510.122497 0 0 0 0.001365 384.545962a508.449964 508.449964 0 0 0 116.770095 325.256425c10.37653 12.697596 21.36746 24.780792 32.972789 36.351988a521.932626 521.932626 0 0 0 75.707708 62.463979A509.95183 509.95183 0 0 0 359.322846 872.9938 510.327297 510.327297 0 0 0 511.455062 895.999659z m198.2122-414.651595l-74.547175-39.492254v33.041056c0 18.534394-16.588794 33.689589-36.829854 33.689588h-208.383931c-20.206927 0-36.795721-15.155195-36.795721-33.689588v-179.780207c0-18.534394 16.588794-33.689589 36.795721-33.689589h208.383931c20.24106 0 36.829854 15.155195 36.829854 33.689589v33.006922l74.547175-39.492253c17.476261-9.25013 31.846389-1.638399 31.846389 16.895994v158.924747c0 18.534394-14.335995 26.180258-31.846389 16.895995z"  horiz-adv-x="1024" />

    
    <glyph glyph-name="huochepiao" unicode="&#58961;" d="M649.65875 377.13750000000005c-20.7384375 0-37.6359375-17.2790625-37.6359375-38.3971875 0-21.12 16.8965625-38.401875 37.6359375-38.401875 20.7346875 0 37.6321875 17.281875 37.6321875 38.401875 0 21.118125-16.8975 38.3971875-37.6321875 38.3971875zM373.945625 377.13750000000005c-20.7384375 0-37.6321875-17.2790625-37.6321875-38.3971875 0.384375-21.12 16.89375-38.401875 37.6321875-38.401875 20.7346875 0 37.6321875 17.281875 37.6321875 38.401875 0 21.118125-16.8975 38.3971875-37.6321875 38.3971875zM512 864C246.903125 864 32 649.096875 32 384s214.903125-480 480-480 480 214.903125 480 480S777.096875 864 512 864z m125.3690625-754.509375c0-6.9140625-5.7609375-12.675-12.67125-12.675H399.2871875c-6.9103125 0-12.6703125 5.7609375-12.6703125 12.675v12.67125c0 6.9103125 5.76 12.6721875 12.6703125 12.6721875h225.410625c6.9103125 0 12.67125-5.761875 12.67125-12.6721875v-12.67125z m113.28-34.9434375c-11.5209375-6.5296875-25.7259375-2.6878125-32.255625 8.829375l-51.4565625 90.62625c-4.2225-0.76875-8.833125-1.153125-13.055625-1.153125H370.488125c-4.606875 0-8.8321875 0.384375-13.0546875 1.153125l-51.4565625-90.62625c-6.5296875-11.5171875-21.1190625-15.3590625-32.255625-8.829375-11.5209375 6.5259375-15.3590625 21.504375-8.833125 33.0215625l47.9990625 84.4809375c-25.3415625 18.43125-40.704375 49.153125-38.3971875 83.3278125l18.046875 274.9434375c3.0721875 46.08 32.255625 82.561875 81.793125 82.561875h75.2634375c0 35.32875 28.0303125 63.7434375 62.589375 63.7434375 34.56375 0 62.593125-28.4146875 62.593125-63.7434375h87.5540625c49.918125 0 66.0459375-36.481875 69.1190625-82.561875l18.046875-274.9434375c2.3071875-34.1746875-13.055625-64.8965625-38.3971875-83.3278125l47.9990625-84.4809375c6.52875-11.9025 2.6878125-26.495625-8.44875-33.0215625zM662.33 568.7521875H361.6559375c-13.8253125 0-24.958125-11.5171875-24.958125-25.7259375v-102.1434375c0-14.2096875 11.1328125-25.730625 24.958125-25.730625h300.6740625c13.824375 0 24.9609375 11.5209375 24.9609375 25.730625V543.02625c0 14.20875-11.1365625 25.7259375-24.9609375 25.7259375z"  horiz-adv-x="1024" />

    
    <glyph glyph-name="jiaoyin" unicode="&#58890;" d="M512 861.03735309c-263.43853827 0-477.03735309-213.59881482-477.03735309-477.03735309s213.59881482-477.03735309 477.03735309-477.03735309 477.03735309 213.59881482 477.03735309 477.03735309-213.59881482 477.03735309-477.03735309 477.03735309z m95.66637827-233.5347042c23.56059653 0 42.59030914-19.93588939 42.59030914-44.40266272 0-24.59622717-19.02971259-44.40266272-42.59030914-44.4026627S565.07606914 558.63321283 565.07606914 583.09998617s19.02971259 44.40266272 42.59030913 44.40266272z m-123.4989511 11.0035753c23.56059653 0 42.59030914-19.93588939 42.59030913-44.40266271 0-24.59622717-19.02971259-44.40266272-42.59030913-44.40266272s-42.59030914 19.93588939-42.59030914 44.40266272c0.12945383 24.59622717 19.15916642 44.40266272 42.59030914 44.40266271zM241.57095506 549.70089876c0 49.0630005 38.05942518 88.93477925 85.18061827 88.93477927 46.99173925 0 85.18061827-39.74232494 85.18061828-88.93477927 0-49.0630005-38.05942518-88.93477925-85.18061828-88.93477926-46.99173925 0-85.18061827 39.74232494-85.18061827 88.93477926z m335.28541235-482.08605234c-29.90383408-6.34323753-116.50844445 1.55344592-105.37541531 83.23881086 3.88361482 28.86820347 29.90383408 75.85994272 0 116.63789827-20.71261235 28.35038815-124.53458173 36.63543309-97.34927802 143.30538667 0 0 27.1853037 78.31956543 130.87781925 91.65330963 0 0 160.13438419 11.65084445 187.70804939-153.27333135 13.46319803-80.5202805 7.89668347-255.0240395-115.86117531-281.56207408z m130.87781926 413.08716247c-23.56059653 0-42.59030914 19.93588939-42.59030914 44.40266272 0 24.59622717 19.02971259 44.40266272 42.59030914 44.4026627s42.59030914-19.93588939 42.59030914-44.4026627-19.02971259-44.40266272-42.59030914-44.40266272z"  horiz-adv-x="1024" />

    
    <glyph glyph-name="KTV" unicode="&#58979;" d="M26.32192 383.54944c0-248.38656 193.37728-452.36736 440.60672-475.5712v263.77216c-17.87392 0-32.512 14.34112-32.512 31.872v60.60544l-181.7344-86.9632-53.67808 78.46912 320.83456 267.14624 110.65856-164.80768-66.03776-31.616v-122.8288c0-17.53088-14.63808-31.872-32.512-31.872v-265.20576c260.93056 9.33376 469.72928 218.99776 469.72928 477.0048 0 263.936-218.35776 477.90592-487.67488 477.90592-269.3376-0.00512-487.68-213.97504-487.68-477.91104z m532.56704 174.39232a133.9392 133.9392 0 0 0 53.2992 66.58048c62.9504 40.60672 147.51232 23.45984 188.96896-38.23616 41.39008-61.62944 23.98208-144.50176-38.99904-185.15456-25.67168-16.55296-54.92224-23.31136-83.46112-21.56544l-119.808 178.37568z"  horiz-adv-x="1027" />

    


  </font>
</defs>
</svg>
